<?xml version="1.0" encoding="utf-8"?>
<!-- Generator: Adobe Illustrator 26.0.1, SVG Export Plug-In . SVG Version: 6.00 Build 0)  -->
<svg version="1.1" id="Bird" xmlns="http://www.w3.org/2000/svg" xmlns:xlink="http://www.w3.org/1999/xlink" x="0px" y="0px"
	 viewBox="0 0 1243 1089" style="enable-background:new 0 0 1243 1089;" xml:space="preserve">
<style type="text/css">
	.st0{display:none;}
	.st1{fill:#FFFFFF;}
</style>
<rect class="st0" width="1243" height="1089"/>
<path id="Bird_eye" class="st1" d="M881.5,868.8c-7.1-10.4-24.8-15.7-31.2-13.3c-6.3,2.3,0.1,13.8,8,23
	C880.9,904.9,891.6,883.5,881.5,868.8z"/>
<path id="Bird2" class="st1" d="M291.6,457.1c50.5,38.1,124,92.2,264.3,91.6c3.1,0,1.7-4.7-2.2-7
	c-347.4-225.6-283.6-424.5-283.6-455c0-29.3-48.8,59.3-47.3,110.4c-3.5,159.8,155,279.9,153.2,279.5
	c-59.1-14.2-135.2-99.2-162.1-138.2c-1.2-1.6-6.9-4.9-3.2,5.4C217,363.1,236.5,411.2,291.6,457.1z"/>
<path id="Bird1" class="st1" d="M948,314.7c-52.5-25.4-118.8-38.9-102.4-29.4c0.9,0.6,185.9,122.5,238,209.2
	c80.4,133.8-14.4,280.4-44.4,289.4c-1.9,0.6-0.8-7.6-0.5-19.1c5.2-120.6-113.7-235-127.3-245.5c-32.4-25.1-62.7-46.3-90.9-65
	c28.2-14.8,45.6-64.5,31.1-98c-22.6-52.1-60.8-74.2-80.8-83.8c-5.1-2.5-17.5-6.2-10.8,3.2c36.2,45.3,9.3,123.9-45.1,110.2
	c-4.3-2.9-8.6-5.8-12.7-8.7c-38.9-35.7-96.8-124-22.2-288.3c1.5-2.1,0.5-8.5-6.3,0.1c-13.2,15.4-44.1,57.1-54.6,128
	c-2.8,26.2-3.6,46.6-2.1,63.2c-16.6-44.9-33.1-139.1,47.5-258.9c-21.2-12.6-291.2,237.9,33.2,433.3
	c157.6,95,216.5,156.9,236.1,192.4c42.1,76.2,46.7,179,14.9,241.2c-24.7,48.2-64.2,105.8-68.9,97c-11.4-21.4-4.3-90.4-128.7-133.1
	C580,793.4,285,884,167.2,642.9c-58.3-106.3-12-249.2-3-292.6c1.4-6.8-89.8,27.2-109.5,133.3c-18.1,77.6-31,269.1,208.7,362.6
	c131.7,51.4,282.8,45.3,388.7,45.5c206.3,0.3,193.5,119.7,211.8,150.2c0.5,0.8,4.5,9.3,7.1,6.5c27.3-13.4,107.3-122.2,163.4-172.1
	C1381.8,566.4,1039.7,359,948,314.7z"/>
</svg>
