<?xml version="1.0" encoding="utf-8"?>
<!-- Generator: Adobe Illustrator 26.0.1, SVG Export Plug-In . SVG Version: 6.00 Build 0)  -->
<svg version="1.1" id="icon" xmlns="http://www.w3.org/2000/svg" xmlns:xlink="http://www.w3.org/1999/xlink" x="0px" y="0px"
	 viewBox="0 0 32 32" style="enable-background:new 0 0 32 32;" xml:space="preserve">
<style type="text/css">
	.st0{display:none;fill:none;}
	.st1{display:none;}
	.st2{display:none;fill:#FFFFFF;}
</style>
<rect id="_Transparent_Rectangle_" class="st0" width="32" height="32"/>
<path id="Sillowette" class="st1" d="M10.3,28h5.4c1.4,1.2,3.3,2,5.3,2c4.4,0,8-3.6,8-8c0-1.9-0.2-2.5-1-4.3V12V6c0-1.1-0.9-2-2-2
	h-4V2h-2v2h-8V2h-2v2H6C4.9,4,4,4.9,4,6v20c0,1.1,0.9,2,2,2h3.7h0.5H10.3z"/>
<path id="Inner_square" class="st2" d="M6,26V6h4v2h2V6h8v2h2V6h4v6v3.7c-1.3-1-3.2-1.7-5-1.7c-4.4,0-8,3.6-8,8c0,1.4,0.4,2.8,1.1,4
	H6z"/>
<path id="Inner_Circle" class="st2" d="M21,16c-3.3,0-6,2.7-6,6s2.7,6,6,6s6-2.7,6-6S24.3,16,21,16z"/>
<polygon id="Hands" class="st1" points="22.6,25 20,22.4 20,18 22,18 22,21.6 24,23.6 "/>
<g>
	<path d="M18.4,30h-5V12.3H6.8V7.8h6.6V2h5v5.8h6.8l-0.1,4.4h-6.7V30z M14.5,28.8H17V11h6.9V9.1H17v-6h-2.2v6H8V11h6.7v18.4
		L14.5,28.8z"/>
</g>
</svg>
