<?xml version="1.0" encoding="utf-8"?>
<!-- Generator: Adobe Illustrator 26.0.1, SVG Export Plug-In . SVG Version: 6.00 Build 0)  -->
<svg version="1.1" id="People_00000072253271461342806140000002880026527615755913_"
	 xmlns="http://www.w3.org/2000/svg" xmlns:xlink="http://www.w3.org/1999/xlink" x="0px" y="0px" viewBox="0 0 47.8 31.8"
	 style="enable-background:new 0 0 47.8 31.8;" xml:space="preserve">
<style type="text/css">
	.st0{display:none;fill:#FFCCCC;}
</style>
<path id="People" d="M2.2,18l0.1-0.7C2.4,17,2.6,16,2.7,15.1l0.3-1.6l-0.2-0.2c-0.3-0.4-0.3-0.6,0-1.1c0.4-0.7,0.5-1.1,0.3-2.5
	c-0.2-1.2,0-2,0.6-2.4C4,7.2,4.3,7,4.5,6.9C4.9,6.7,5,6.3,5,5.9C5,5.7,5,5.6,4.7,5.3C4.5,5.1,4.3,5,4.3,5S4.1,4.9,4,4.8
	C3.8,4.7,3.8,4.5,3.8,4.4c0-0.1,0-0.3,0-0.5c-0.1-0.4,0.1-1,0.4-1.3C4.9,2,5.3,1.8,5.9,1.8c0.4,0,0.6,0.1,1,0.5
	C7.1,2.6,7.4,3.5,7.4,4c0,0.4-0.3,0.9-0.7,1.2C6.3,5.5,6.3,5.6,6.5,6c0.2,0.3,0.7,0.5,1.3,0.7C8.3,6.8,8.6,7,8.8,7.4
	c0.1,0.2,0.2,0.4,0.2,0.4c0,0,1.1-0.6,1.4-0.8c0.2-0.1,0.1-0.1-0.1-0.4C9.8,6.1,9.6,4.7,9.9,4.1c0.3-0.6,1-1.1,1.7-1.1
	c0.3,0,0.5,0,0.7,0.3c0.4,0.3,0.6,0.8,0.7,1.3C13,4.8,13,5,13.1,5.1c0.1,0.1,0.1,0.5-0.2,0.9c-0.2,0.4-0.3,0.7-0.1,0.7
	c0,0,0.1,0.1,0.3,0.2c0.1,0.1,0.5,0.4,0.9,0.6c0.4,0.3,0.8,0.6,0.9,0.7c0.8,0.8,1.3,2.2,1.4,4c0,1.1,0,1.1-0.6,1.8l-0.4,0.4
	l-0.1,0.9c-0.1,1.4-0.2,2.6-0.3,2.9c-0.1,0.2-0.2,0.3-0.4,0.4c-0.3,0.1-0.4,0.2-0.5,0.7c-0.3,0.8-0.3,1.1-0.1,1.5
	c0.1,0.2,0.4,0.8,0.6,1.3c0.7,1.5,0.9,1.9,1.2,2.9c0.2,0.5,0.5,1.3,0.6,1.6c0.2,0.6,0.2,0.7,0.1,0.8c-0.1,0.1-0.1,0.2,0,0.6
	c0.1,0.3,0.1,0.5,0.1,0.6c-0.1,0.1-1.7,0.6-2.3,0.7c-0.6,0-0.8-0.1-0.4-0.3c0.5-0.4,0.6-0.6,0.6-0.7c0-0.1,0-0.2,0.1-0.4
	c0.1-0.2,0.1-0.2,0-0.3c-0.2-0.2-0.4-0.5-0.6-1.1c-0.1-0.3-0.2-0.5-0.2-0.6c0,0-0.1-0.1-0.1-0.2c0-0.1-0.3-0.7-0.7-1.5l-0.7-1.4
	l-0.1,0.2c-0.3,0.5-0.8,2.1-1,2.8c-0.6,2.4-0.7,2.6-0.9,2.8c-0.2,0.1-0.2,0.2-0.2,0.5c0,0.4-0.1,0.5-0.5,0.6c-0.2,0-0.5,0.1-0.8,0.2
	C8.1,29.9,7.4,30,7,29.9c-0.3-0.1-0.1-0.3,0.5-0.7c0.6-0.3,0.9-0.7,0.7-0.7c-0.1,0-0.2,0-0.3-0.1c-0.1-0.1-0.1-0.1,0-0.6
	c0.2-0.5,0.4-1.3,0.5-2c0-0.2,0.2-0.8,0.2-1.2c0.1-0.4,0.2-1,0.3-1.2c0.2-0.8,0.3-1.5,0.7-2.6c0.2-0.6,0.4-1.3,0.4-1.5l0.1-0.3H9.8
	c-0.4,0-0.4,0-0.5-1c0-0.6-0.3-2.8-0.3-2.8c0,0-0.1-0.1-0.3-0.1C8.1,15,8,14.8,7.9,14c0-0.4-0.1-0.7-0.1-0.8c0,0-0.1,0-0.1,0
	c-0.1,0-0.1,0.1-0.1,0.3c0.1,0.2,0.3,2,0.4,3.4c0,0.5,0.1,1,0.1,1.1c0.1,0.3,0.2,3.5,0.2,3.5c0,0-0.9,0.2-1.4,0.3L6.6,22l-0.1,0.5
	c-0.1,0.6-0.3,1.8-0.4,2.7c-0.2,1-0.1,1.5,0.3,1.9c0.4,0.4,0.6,0.8,0.5,1c0,0.2-0.1,0.2-0.6,0.1l-0.5,0l-0.1,0.3
	c-0.1,0.5-0.5,0.9-0.9,0.9c-0.2,0-0.3,0-0.3-0.2c-0.1-0.3,0-0.6,0.2-1.1c0.2-0.5,0.1-1.2-0.1-2.3c-0.2-1-0.4-2.2-0.5-3
	c0-0.2-0.1-0.5-0.1-0.5c0,0-0.3-0.1-0.7-0.1c-0.4-0.1-0.8-0.2-1-0.2L2,21.7V21c0-0.4,0-1.2,0.1-1.7l0.1-0.9L2.2,18z M8,10.9l0-0.6
	l-0.2,0.5c-0.1,0.3-0.2,0.6-0.2,0.7c-0.1,0.1,0,0.1,0.1,0.1C8,11.5,8,11.4,8,10.9L8,10.9z M34.1,29.7c-0.1-0.2-0.1-0.4,0.1-1.1
	c0.2-1,0.2-1-0.3-3.1c-0.1-0.6-0.3-1.3-0.3-1.7c-0.1-1-0.2-1-0.6-1c-0.4,0-1-0.1-1.3-0.2c-0.1,0-0.1,0.1-0.2,1
	c-0.1,0.6-0.1,1.7-0.2,2.5c-0.1,1.7-0.1,1.9-0.3,1.9c-0.1,0-0.2,0.1-0.2,0.3c0,0.2,0,0.4-0.1,0.4c-0.1,0.1-0.8,0.3-0.9,0.3
	c-0.1,0-1.3,0.1-1.5,0.1c-0.1,0-0.2,0.2-0.2,0.3c-0.1,0.3-0.4,0.5-0.7,0.4c-0.2-0.1-0.4-0.6-0.3-1.3c0-0.5,0-0.5-0.2-0.6
	c-0.3-0.1-0.3-0.3-0.1-0.4c0.2-0.1,0.2-0.1,0-0.6c-0.1-0.3-0.4-1-0.7-1.6s-0.6-1.5-0.8-2c-0.4-1-0.4-0.9-1.5-1
	c-1.3-0.1-1.1-0.2-1.4,0.7c-0.1,0.4-0.4,1.3-0.6,2.1c-0.5,1.6-0.6,2-0.4,2.6c0.1,0.4,0.1,0.5,0,0.8C21.2,29,21,29,21,28.7
	c0-0.1,0-0.2-0.1-0.2s-0.2,0.1-0.5,0.3c-0.2,0.2-0.6,0.4-0.7,0.4c-0.4,0.1-1,0.1-1,0c0-0.1,0.2-0.3,0.5-0.6c0.6-0.6,0.9-1,1.1-2
	c0.2-0.8,0.6-4.6,0.5-4.7c0,0-0.3-0.1-0.7-0.3c-0.9-0.3-0.9-0.3-0.7-1.1c0.5-1.9,0.6-2.4,0.6-2.6c0-0.1-0.1-0.2-0.4-0.2
	c-0.3,0-0.4-0.1-0.5-0.2c0-0.1,0.2-1.2,0.4-1.8c0-0.1,0.1-0.4,0.2-0.6c0.1-0.3,0.2-0.4,0.3-0.5c0.1-0.1,0.3-0.3,0.4-0.6
	c0.1-0.3,0.2-0.5,0.2-0.6c0-0.1-0.3-0.1-0.6,0.1c-0.3,0.2-0.7,0.1-1-0.1c-0.1-0.1-0.3-0.2-0.3-0.3c0,0,0.1-0.1,0.3-0.2
	c0.3-0.1,0.3-0.2,0.2-0.2c-0.2-0.1-0.2-0.2,0-0.2c0.1,0,0.2-0.1,0.3-0.2c0.3-0.2,0.5-0.2,1.1,0l0.5,0.2l0.1-0.3c0-0.2,0.1-0.6,0.2-1
	c0.2-1.2,0.5-2.3,0.8-2.7c0.2-0.3,0.2-0.5,0.2-0.8c0-0.3,0-0.4,0.3-0.7c0.4-0.4,0.4-0.6,0.1-0.6c-0.1,0-0.3-0.1-0.4-0.1
	s-0.3-0.1-0.4-0.1c-0.2,0-0.3-0.1-0.5-0.2c-0.2-0.2-0.2-0.2-0.2-0.9c0-0.9,0.2-1.5,0.6-1.8c0.4-0.4,0.6-0.6,1.1-0.6
	c0.6-0.1,1,0.1,1.4,0.7c0.6,0.9,0.6,1.9,0.2,2.5c-0.3,0.4-0.3,0.6-0.1,0.6c0.3,0,0.5,0.1,0.5,0.4c0,0.2,0.1,0.2,0.4,0.3
	c0.6,0.2,0.9,0.3,0.9,0.4c0.2,0.2,0.6,1.1,0.8,1.9c0.1,0.4,0.3,0.8,0.3,0.8c0,0,0.7-1.3,0.9-1.8c0.1-0.2,0.3-0.8,0.4-1.2
	c0.1-0.4,0.3-0.9,0.4-0.9c0.3-0.2,0.2-0.4-0.2-0.5c-0.3,0-0.4-0.1-0.7-0.5c-0.4-0.5-0.5-0.8-0.6-1.7c0-0.6,0-0.7,0.1-1
	c0.3-0.5,0.7-0.8,1.3-0.8c0.7,0,1.1,0.3,1.3,1C30.8,2.7,30.9,3,31,3c0.2,0.1,0.2,0.1,0,1.2c-0.1,0.5,0.1,0.9,0.4,1
	c0.1,0,0.3,0.1,0.3,0.2c0,0.1,0.3,0.4,0.5,0.6c0.5,0.5,0.5,0.7,0.6,1.6l0.1,0.7l0.6-0.4c0.9-0.6,1-0.7,1-1.2c0-0.3,0-0.4-0.2-0.5
	c-0.3-0.2-0.9-0.7-0.9-0.9c0-0.3,0-0.4,0-0.8c-0.1-0.7,0.3-1.3,1.1-1.8c0.6-0.3,1.2-0.3,1.7,0c0.2,0.1,0.4,0.4,0.5,0.6
	c0.2,0.4,0.4,1.1,0.4,1.5c0,0.3-0.3,0.8-0.6,0.9c-0.4,0.2-0.6,0.4-0.5,0.7c0.1,0.4,0.3,0.6,0.9,0.7c1,0.2,1,0.2,1.3,0.6l0.2,0.3
	l0.3-0.6c0.4-0.8,0.5-0.9,0.9-1.1c0.2-0.1,0.4-0.2,0.5-0.3C40.1,6,40.1,6,39.9,5.8c-0.3-0.2-0.4-0.7-0.4-1.6c0-0.9,0.2-1.3,0.6-1.6
	c0.3-0.2,1-0.4,1.4-0.3c0.6,0.1,1.1,0.7,1.1,1.4c0,0.2,0,0.3,0.1,0.4c0.2,0.1,0,0.8-0.2,1.1c-0.4,0.5-0.3,0.6,0.7,1
	c1,0.5,1.7,1,1.9,1.4c0.6,1,1.2,4.3,0.9,5c-0.1,0.1-0.3,0.4-0.6,0.6l-0.5,0.4l-0.1,1.8c-0.1,1-0.1,1.9-0.2,2c0,0.2-0.2,0.3-0.4,0.4
	c-0.4,0.2-0.4,0.2-0.6,0.8l-0.2,0.6l0.3,0.5c0.1,0.3,0.6,1.2,0.9,2c0.4,0.8,0.8,1.7,0.9,2.1c0.3,0.9,0.8,2.8,0.8,3.1
	c0,0.2,0,0.4,0,0.6c0.1,0.3,0.1,0.3-0.3,0.4c-0.2,0.1-0.6,0.2-1,0.3c-0.7,0.2-1.7,0.3-1.8,0.2c-0.1-0.1,0-0.2,0.6-0.5
	c0.4-0.3,0.4-0.3,0.4-0.6c0-0.2,0-0.3,0.1-0.3c0,0,0.1-0.1,0.1-0.1s0-0.1-0.1-0.1s-0.2-0.1-0.3-0.2c-0.1-0.1-0.2-0.3-0.3-0.7
	c0-0.3-0.2-0.8-0.6-1.6c-0.9-1.8-1.2-2.3-1.3-2.3c-0.1,0-1,2.1-1,2.4c0,0.1,0,0.3-0.1,0.4c0,0.1-0.2,0.7-0.3,1.4
	c-0.2,1.4-0.3,1.6-0.5,1.6c-0.1,0-0.2,0.2-0.2,0.6c0,0.2-0.1,0.3-0.4,0.3c-0.2,0-0.7,0.2-1,0.3c-0.8,0.2-1.6,0.3-1.6,0.1
	c0-0.1,0.3-0.4,0.7-0.6c0.7-0.5,0.9-0.7,0.5-0.7c-0.1,0-0.2-0.1-0.1-0.2c0.2-0.7,0.8-3.8,0.9-5.1c0-0.2,0.2-0.7,0.4-1.3
	c0.5-1.4,0.8-2.8,0.7-2.8c0,0-0.2,0-0.3,0c-0.1,0-0.2,0-0.2,0c-0.1-0.1-0.3-1.5-0.5-2.6c-0.2-1.1-0.2-1.2-0.5-1.3
	c-0.4-0.1-0.5-0.3-0.5-0.5c0-0.1,0-0.2,0-0.3c0,0-0.3,0.1-0.5,0.2c-0.4,0.2-0.5,0.2-0.5,0.4c0,0.1,0.1,0.5,0.2,0.8
	c0.1,0.4,0.2,0.9,0.3,1.1c0.1,0.5,0.4,3.6,0.4,5.1l0,0.8l-0.3,0.2c-0.2,0.1-0.6,0.2-0.9,0.3l-0.6,0.2l-0.2,1
	c-0.4,1.9-0.5,2.9-0.4,3.3c0,0.2,0.2,0.5,0.4,0.7c0.4,0.4,0.5,0.7,0.4,0.8c0,0-0.3,0.1-0.5,0.1c-0.4,0-0.4,0-0.5,0.4
	c-0.1,0.5-0.3,0.8-0.5,0.9C34.4,30,34.2,30,34.1,29.7L34.1,29.7z M28.6,28.2l0.2-0.2l-0.3,0c-0.3,0-0.3,0-0.3,0.2
	C28.2,28.4,28.3,28.4,28.6,28.2L28.6,28.2z M28.1,26.9c0.1-0.1,0.1-0.2,0.1-0.3c0-0.1,0.2-0.3,0.3-0.5l0.3-0.3l-0.3-0.2
	c-0.3-0.3-0.3-0.2-0.4-2.1c0-0.6-0.1-1.5-0.2-1.8c-0.1-0.4-0.2-1.2-0.2-1.9c0-0.7-0.1-1.5-0.1-2l-0.1-0.8l-0.4-0.2
	c-0.5-0.2-0.6-0.4-0.6-1c0-0.3,0-0.5-0.1-0.5c0,0-0.2,0.1-0.4,0.3c-0.3,0.3-0.3,0.3-0.3,0.8c0,0.3,0.1,1,0.1,1.5
	c0.1,1.1,0.2,2.1,0.5,3.1c0.1,0.4,0.2,0.9,0.2,1.2c0,0.3,0.1,0.7,0.1,0.8c0.2,0.8,0.9,3.8,0.9,4.1C27.8,27.2,27.9,27.1,28.1,26.9
	L28.1,26.9z M31.4,20.5c0-0.3,0.1-0.7,0.1-0.9c0.2-1,0.4-2.4,0.4-2.5c0,0-0.3,0-0.5,0l-0.5,0.1v0.4c0,0.2,0,0.6,0.1,0.8
	c0,0.2,0.1,0.9,0.2,1.5c0.1,0.6,0.1,1.1,0.2,1.1C31.3,21,31.4,20.7,31.4,20.5L31.4,20.5z M32.3,15.4c0.2-0.8,0.2-1.2,0-1.3
	c-0.2-0.2-0.2-0.5,0-1.2c0.2-0.5,0.3-0.7,0.3-1.3c0-1-0.1-1.1-0.3-0.4c-0.1,0.4-0.3,0.9-0.4,1.3c-0.3,0.8-0.3,1.6-0.2,2.7
	c0.2,1,0.2,1.2,0.3,1C32.2,16.2,32.3,15.8,32.3,15.4L32.3,15.4z M21,13.6c-0.1-0.1-0.2,0.2-0.3,0.7c-0.1,0.3-0.1,0.4,0,0.5
	C20.8,14.8,21.1,13.7,21,13.6L21,13.6z M26.1,13.7c0.2-0.3,0.4-0.7,0.5-0.9c0.2-0.4,0.2-0.4,0-0.9c-0.2-0.6-0.2-0.6-0.3-0.4
	c0,0.1-0.2,0.5-0.4,0.9c-0.2,0.5-0.3,0.8-0.3,1.2c0,0.3,0,0.5,0.1,0.5S25.9,13.9,26.1,13.7L26.1,13.7z M37.4,12.3
	c0.1-0.1,0.1-0.2,0-0.6c0-0.3-0.1-0.4-0.1-0.4c0,0-0.1,0.3-0.2,0.6l-0.2,0.6l0.2-0.1C37.2,12.4,37.3,12.3,37.4,12.3L37.4,12.3z"/>
<rect class="st0" width="47.8" height="31.8"/>
</svg>
