<?xml version="1.0" encoding="UTF-8"?><svg xmlns="http://www.w3.org/2000/svg" xmlns:xlink="http://www.w3.org/1999/xlink" width="1500pt" zoomAndPan="magnify" viewBox="0 0 1500 1499.999933" height="1499.999933pt" preserveAspectRatio="xMidYMid meet" version="1.2"><defs><clipPath xml:id="clip1" id="clip1"><path d="M 849.5 368 L 1324.90625 368 L 1324.90625 1132 L 849.5 1132 Z M 849.5 368 "/></clipPath><clipPath xml:id="clip2" id="clip2"><path d="M 174.90625 364.902344 L 677.898438 364.902344 L 677.898438 1135.152344 L 174.90625 1135.152344 Z M 174.90625 364.902344 "/></clipPath></defs><g xml:id="surface1" id="surface1"><g clip-rule="nonzero" clip-path="url(#clip1)"><path style=" stroke:none;fill-rule:nonzero;fill:rgb(0%,0%,0%);fill-opacity:1;" d="M 1142.632812 1131.851562 L 1031.78125 1131.851562 L 1031.78125 638.019531 L 849.421875 638.019531 L 849.421875 527.117188 L 1031.78125 527.117188 L 1031.78125 368.273438 L 1142.632812 368.273438 L 1142.632812 527.117188 L 1324.992188 527.117188 L 1324.992188 638.019531 L 1142.632812 638.019531 Z M 1050.089844 1113.523438 L 1124.324219 1113.523438 L 1124.324219 619.710938 L 1306.683594 619.710938 L 1306.683594 545.433594 L 1124.324219 545.433594 L 1124.324219 386.570312 L 1050.089844 386.570312 L 1050.089844 545.445312 L 867.71875 545.445312 L 867.71875 619.722656 L 1050.078125 619.722656 L 1050.078125 1113.523438 Z M 1050.089844 1113.523438 "/></g><g clip-rule="nonzero" clip-path="url(#clip2)"><path style=" stroke:none;fill-rule:nonzero;fill:rgb(0%,0%,0%);fill-opacity:1;" d="M 677.898438 542.699219 L 470.785156 542.699219 L 470.785156 364.960938 L 382.019531 364.960938 L 382.019531 542.699219 L 174.90625 542.699219 L 174.90625 631.566406 L 382.019531 631.566406 L 382.019531 1135.152344 L 470.785156 1135.152344 L 470.785156 631.566406 L 677.898438 631.566406 Z M 677.898438 542.699219 "/></g></g></svg>